<svg width="459" height="459" xmlns="http://www.w3.org/2000/svg">

 <g>
  <title>background</title>
  <rect fill="none" id="canvas_background" height="402" width="582" y="-1" x="-1"/>
 </g>
 <g>
  <title>Layer 1</title>
  <g id="svg_1">
   <g id="volume-up">
    <path fill="#e5e5e5" id="svg_2" d="m0,153l0,153l102,0l127.5,127.5l0,-408l-127.5,127.5l-102,0zm344.25,76.5c0,-45.9 -25.5,-84.15 -63.75,-102l0,204c38.25,-17.85 63.75,-56.1 63.75,-102zm-63.75,-224.4l0,53.55c73.95,22.95 127.5,89.249 127.5,170.85s-53.55,147.9 -127.5,170.85l0,53.55c102,-22.951 178.5,-114.75 178.5,-224.4c0,-109.65 -76.5,-201.451 -178.5,-224.4z"/>
   </g>
  </g>
  <g id="svg_3"/>
  <g id="svg_4"/>
  <g id="svg_5"/>
  <g id="svg_6"/>
  <g id="svg_7"/>
  <g id="svg_8"/>
  <g id="svg_9"/>
  <g id="svg_10"/>
  <g id="svg_11"/>
  <g id="svg_12"/>
  <g id="svg_13"/>
  <g id="svg_14"/>
  <g id="svg_15"/>
  <g id="svg_16"/>
  <g id="svg_17"/>
 </g>
</svg>