<svg width="461.55" height="461.55" xmlns="http://www.w3.org/2000/svg">

 <g>
  <title>background</title>
  <rect fill="none" id="canvas_background" height="402" width="582" y="-1" x="-1"/>
 </g>
 <g>
  <title>Layer 1</title>
  <g id="svg_1">
   <g id="volume-off">
    <path fill="#e5e5e5" id="svg_2" d="m345.525,229.5c0,-45.9 -25.5,-84.15 -63.75,-102l0,56.1l63.75,63.75c0,-7.65 0,-12.75 0,-17.85zm63.75,0c0,22.95 -5.1,45.9 -12.75,66.3l38.25,38.25c17.85,-30.6 25.5,-68.85 25.5,-107.1c0,-109.65 -76.5,-201.45 -178.5,-224.4l0,53.55c73.95,25.5 127.5,91.8 127.5,173.4zm-374.85,-229.5l-33.15,33.15l119.85,119.85l-119.85,0l0,153l102,0l127.5,127.5l0,-170.85l109.65,109.65c-17.851,12.75 -35.7,22.95 -58.65,30.601l0,53.55c35.7,-7.65 66.3,-22.95 94.35,-45.9l51,51l33.15,-33.149l-229.5,-229.5l-196.35,-198.902zm196.35,25.5l-53.55,53.55l53.55,53.55l0,-107.1z"/>
   </g>
  </g>
  <g id="svg_3"/>
  <g id="svg_4"/>
  <g id="svg_5"/>
  <g id="svg_6"/>
  <g id="svg_7"/>
  <g id="svg_8"/>
  <g id="svg_9"/>
  <g id="svg_10"/>
  <g id="svg_11"/>
  <g id="svg_12"/>
  <g id="svg_13"/>
  <g id="svg_14"/>
  <g id="svg_15"/>
  <g id="svg_16"/>
  <g id="svg_17"/>
 </g>
</svg>